# xmcd CD database file
#
# Track frame offsets:
#	150
#	22802
#	41965
#
# Disc length: 859 seconds
#
# Revision: 1
# Processed by: cddbd v1.5.1PL2 Copyright (c) Steve Scherf et al.
# Submitted via: CDex 1.51
#
DISCID=1c035903
DTITLE=山本正之 - 怪人Jijy面相
DYEAR=1900
DGENRE=Vocal
TTITLE0=怪人Jijy面相
TTITLE1=ジパング難破船
TTITLE2=怪人Jijy面相(オリジナル・カラオケ)
EXTD=
EXTT0=
EXTT1=
EXTT2=
PLAYORDER=
